<svg width="63" height="28" viewBox="0 0 63 28" fill="none" xmlns="http://www.w3.org/2000/svg">
<path d="M13.2485 21.5H0.564453V1.47998H5.10045V17.944H13.2485V21.5Z" fill="black"/>
<path fill-rule="evenodd" clip-rule="evenodd" d="M29.2869 14.248C29.2869 18.868 25.9549 21.808 21.5589 21.808C17.1909 21.808 13.8589 18.896 13.8589 14.332V14.108C13.8589 9.51602 17.1909 6.52002 21.5869 6.52002C25.9829 6.52002 29.2869 9.46002 29.2869 14.024V14.248ZM18.0029 14.248C18.0029 17.048 19.2909 18.728 21.5869 18.728C23.8549 18.728 25.1709 17.048 25.1709 14.276V14.08C25.1709 11.28 23.8549 9.60002 21.5869 9.60002C19.3469 9.60002 18.0029 11.224 18.0029 14.024V14.248Z" fill="black"/>
<path fill-rule="evenodd" clip-rule="evenodd" d="M37.665 26.904C42.4809 26.904 45.3649 24.692 45.3929 20.352V6.85602H41.361V9.04002C40.521 7.55602 39.0929 6.52002 36.7129 6.52002C33.0729 6.52002 30.2729 9.46002 30.2729 13.66V13.856C30.2729 18.196 33.1009 20.856 36.6569 20.856C38.813 20.856 40.549 19.568 41.361 18.14V20.352C41.361 22.648 40.129 23.936 37.665 23.936C35.593 23.936 34.6689 23.096 34.417 21.808H30.3849C30.7769 24.832 32.933 26.904 37.665 26.904ZM37.861 17.804C35.845 17.804 34.417 16.292 34.417 13.856V13.632C34.417 11.224 35.6769 9.60002 37.945 9.60002C40.157 9.60002 41.4729 11.112 41.4729 13.604V13.8C41.4729 16.292 39.989 17.804 37.861 17.804Z" fill="black"/>
<path fill-rule="evenodd" clip-rule="evenodd" d="M62.6616 14.248C62.6616 18.868 59.3296 21.808 54.9336 21.808C50.5656 21.808 47.2336 18.896 47.2336 14.332V14.108C47.2336 9.51602 50.5656 6.52002 54.9616 6.52002C59.3576 6.52002 62.6616 9.46002 62.6616 14.024V14.248ZM51.3776 14.248C51.3776 17.048 52.6656 18.728 54.9616 18.728C57.2296 18.728 58.5456 17.048 58.5456 14.276V14.08C58.5456 11.28 57.2296 9.60002 54.9616 9.60002C52.7216 9.60002 51.3776 11.224 51.3776 14.024V14.248Z" fill="black"/>
</svg>
