<svg width="49" height="48" viewBox="0 0 49 48" fill="none" xmlns="http://www.w3.org/2000/svg">
<path fill-rule="evenodd" clip-rule="evenodd" d="M41.7935 14.24L41.5135 13.74C41.1523 13.1354 40.6429 12.6329 40.0335 12.28L26.6135 4.54C26.0059 4.1875 25.3161 4.00124 24.6135 4H24.0335C23.3309 4.00124 22.6411 4.1875 22.0335 4.54L8.61349 12.3C8.00744 12.6505 7.50402 13.1539 7.1535 13.76L6.8735 14.26C6.521 14.8677 6.33474 15.5575 6.3335 16.26V31.76C6.33474 32.4626 6.521 33.1524 6.8735 33.76L7.1535 34.26C7.51308 34.859 8.01448 35.3604 8.61349 35.72L22.0535 43.46C22.6581 43.8198 23.3499 44.0066 24.0535 44H24.6135C25.3161 43.9988 26.0059 43.8126 26.6135 43.46L40.0335 35.7C40.6455 35.3574 41.1509 34.852 41.4935 34.24L41.7935 33.74C42.1417 33.1306 42.3277 32.442 42.3335 31.74V16.24C42.3323 15.5375 42.1461 14.8477 41.7935 14.24ZM24.0335 8H24.6135L36.3335 14.76L24.3335 21.68L12.3335 14.76L24.0335 8ZM26.3335 39L38.0335 32.24L38.3335 31.74V18.22L26.3335 25.16V39Z" fill="black"/>
</svg>
